<svg width="25" height="25" viewBox="0 0 25 25" fill="none" xmlns="http://www.w3.org/2000/svg">
<path d="M14.5106 14.654C13.0017 13.9902 11.7357 12.8555 10.8931 11.4114C10.8548 11.3392 10.8396 11.2565 10.8496 11.175C10.8597 11.0934 10.8945 11.0172 10.9491 10.957L11.6726 10.1488C11.7228 10.0941 11.7562 10.0255 11.7687 9.95153C11.7811 9.87754 11.7721 9.80144 11.7426 9.73269L10.6037 7.50878C10.6037 7.50878 10.0995 6.71966 9.06795 7.39878C9.06795 7.39878 6.35594 9.57009 8.08771 12.5544C9.81947 15.5388 11.4485 16.5479 12.9142 17.2796C14.1886 17.9157 16.9472 18.7622 18.6136 15.6583C18.6136 15.6583 19.1971 14.7018 18.6136 14.4579C18.3476 14.3479 16.8959 13.6114 16.2797 13.3053C16.2018 13.266 16.1132 13.255 16.0283 13.2741C15.9435 13.2932 15.8676 13.3413 15.813 13.4105L14.9447 14.5344C14.8944 14.5993 14.825 14.646 14.7469 14.6675C14.6688 14.689 14.586 14.6843 14.5106 14.654V14.654Z" stroke="white" stroke-width="1.5"/>
<path d="M2 23.1765L3.86713 17.82C2.61172 15.4922 2.22197 12.7771 2.77003 10.1775C3.31809 7.57788 4.76683 5.26973 6.84807 3.68035C8.92932 2.09096 11.5021 1.32797 14.0902 1.53263C16.6782 1.73729 19.1063 2.89574 20.9248 4.79352C22.7434 6.6913 23.8293 9.19988 23.9815 11.8549C24.1337 14.5099 23.342 17.1315 21.7528 19.2344C20.1637 21.3373 17.8847 22.7791 15.3378 23.2928C12.791 23.8065 10.1487 23.3575 7.90013 22.0287L2 23.1765Z" stroke="white" stroke-width="1.5" stroke-linecap="round"/>
</svg>
