<svg width="68" height="68" viewBox="0 0 68 68" fill="none" xmlns="http://www.w3.org/2000/svg">
<path fill-rule="evenodd" clip-rule="evenodd" d="M3.11569 19.7068C8.49026 8.1008 20.3299 0 33.9611 0C52.7331 0 68 15.2669 68 34.0389C68 52.811 52.7331 68 33.9611 68C20.3299 68 8.49026 59.9771 3.11569 48.3711C2.72623 47.4364 2.80412 46.4238 3.27148 45.567C3.81672 44.7881 4.75143 44.2428 5.68614 44.2428H39.3356C41.1271 44.2428 42.6071 42.8408 42.6071 40.9714C42.6071 39.1798 41.1271 37.6999 39.3356 37.6999H2.88202C1.32417 37.6999 0 36.4536 0 34.8958C0 34.5842 0 34.3505 0 34.0389C0 33.7274 0 33.4158 0 33.1042C0 31.5464 1.32417 30.3001 2.88202 30.3001H39.3356C41.1271 30.3001 42.6071 28.8981 42.6071 27.0286C42.6071 25.2371 41.1271 23.7572 39.3356 23.7572H5.68614C4.75143 23.7572 3.81672 23.2898 3.27148 22.433C2.80412 21.6541 2.72623 20.5636 3.11569 19.7068ZM10.6712 18.071H39.3356C44.3207 18.071 48.2932 22.0435 48.2932 27.0286C48.2932 29.8328 47.047 32.4032 45.0218 34.0389C47.047 35.6747 48.2932 38.1672 48.2932 40.9714C48.2932 45.9565 44.3207 50.0069 39.3356 50.0069H10.6712C15.7343 57.4066 24.3024 62.3139 33.9611 62.3139C49.6174 62.3139 62.236 49.6174 62.236 34.0389C62.236 18.3826 49.6174 5.76403 33.9611 5.76403C24.3024 5.76403 15.7343 10.5934 10.6712 18.071Z" fill="white"/>
</svg>
