<svg width="22" height="26" viewBox="0 0 22 26" fill="none" xmlns="http://www.w3.org/2000/svg">
<path fill-rule="evenodd" clip-rule="evenodd" d="M11.2793 13.0977L12.3279 12.0519L14.8309 14.5541L12.8497 16.5347C12.2634 17.1182 11.3077 17.1182 10.7213 16.5347L4.64875 10.4638C4.065 9.87764 4.065 8.92221 4.64875 8.33863L5.14468 7.84284L5.64062 7.34705L6.13655 6.85126L6.6299 6.35547L9.13539 8.86024L8.0867 9.90605L9.68298 11.5019L11.2793 13.0977Z" stroke="white" stroke-width="1.5"/>
<path d="M11.1191 4.01615C12.7645 4.01098 14.4099 4.63588 15.6652 5.89085C16.9205 7.14324 17.5456 8.7907 17.5404 10.433" stroke="white" stroke-width="1.5"/>
<path d="M10.832 6.85398C11.8471 6.76618 12.8932 7.10962 13.6707 7.88687C14.4482 8.66413 14.7917 9.70994 14.7039 10.7248" stroke="white" stroke-width="1.5"/>
<path fill-rule="evenodd" clip-rule="evenodd" d="M8.83676 1H13.1632C17.4742 1 21 4.52476 21 8.83451V12.114C21 16.4211 17.4742 19.9485 13.1632 19.9485H9.56516V19.9924L5.60028 24V19.2435C2.89332 18.0066 1 15.2695 1 12.114V8.83451C1 4.52476 4.52577 1 8.83676 1Z" stroke="white" stroke-width="1.5"/>
</svg>
