<svg width="59" height="59" viewBox="0 0 59 59" fill="none" xmlns="http://www.w3.org/2000/svg">
<g clip-path="url(#clip0_181_917)">
<path d="M51.941 12.0929C51.941 5.42457 46.516 0 39.8481 0C33.1803 0 27.7557 5.42457 27.7557 12.0929C27.7557 13.8088 28.1145 15.5188 28.7816 17.0632L19.0659 13.8245L0 21.4003V59L19.1424 52.1544L39.8994 58.9581L58.9662 51.508V13.1223L51.2604 16.1684C51.7047 14.8702 51.941 13.4833 51.941 12.0929ZM39.8481 3.45523C44.611 3.45523 48.4858 7.32999 48.4858 12.0929C48.4858 13.8214 47.9915 15.5332 47.0935 16.9124L39.8481 28.0438L32.6028 16.9124C31.7052 15.5332 31.2105 13.8214 31.2105 12.0929C31.2105 7.32999 35.0853 3.45523 39.8481 3.45523ZM20.8453 18.0598L31.5495 21.6276L38.1205 31.7232V54.739L20.8453 49.0768V18.0598ZM3.45523 23.7455L17.3905 18.2084V49.1115L3.45523 54.0949V23.7455ZM55.511 49.1488L41.5757 54.5936V31.7232L48.5969 20.9366L55.511 18.2034V49.1488Z" fill="#333333"/>
<path d="M39.8479 17.3905C42.6572 17.3905 45.0308 14.9643 45.0308 12.0928C45.0308 9.23495 42.7058 6.91 39.8479 6.91C36.9905 6.91 34.6655 9.23495 34.6655 12.0928C34.6655 14.9643 37.0386 17.3905 39.8479 17.3905ZM39.8479 10.3652C40.8004 10.3652 41.5755 11.1399 41.5755 12.0928C41.5755 13.0741 40.768 13.9352 39.8479 13.9352C38.9278 13.9352 38.1203 13.0741 38.1203 12.0928C38.1203 11.1399 38.8954 10.3652 39.8479 10.3652Z" fill="#333333"/>
</g>
<defs>
<clipPath id="clip0_181_917">
<rect width="59" height="59" fill="white"/>
</clipPath>
</defs>
</svg>
