<svg width="53" height="59" viewBox="0 0 53 59" fill="none" xmlns="http://www.w3.org/2000/svg">
<path d="M38.4044 35.9226C39.763 33.7149 40.5479 31.1182 40.5479 28.3413V24.402H44.0075V14.0254H40.5343C40.2931 8.77717 36.768 4.31472 31.8052 2.82912V0H20.2753V2.829C15.3123 4.31472 11.7873 8.77706 11.5461 14.0254H8.07286V24.402H11.5327V28.3413C11.5327 31.1182 12.3175 33.715 13.6761 35.9226L0 39.8151V59H52.0804V39.8151L38.4044 35.9226ZM26.0402 46.3113C22.8482 46.3113 20.6643 44.8603 19.3636 41.8752C19.243 41.5985 19.1364 41.3205 19.0412 41.045C21.1179 42.1936 23.5039 42.8486 26.0403 42.8486C28.5767 42.8486 30.9628 42.1936 33.0394 41.045C32.9441 41.3204 32.8377 41.5983 32.717 41.8751C31.4162 44.8603 29.2322 46.3113 26.0402 46.3113ZM16.1477 43.1479C16.952 45.0365 18.0764 46.5547 19.4895 47.6607C20.8604 48.7337 22.4776 49.3993 24.3117 49.6517V55.543H10.3766V40.456L15.0266 39.1326C15.203 40.2646 15.5323 41.703 16.1477 43.1479ZM27.7687 49.6516C29.6028 49.3991 31.22 48.7335 32.5909 47.6606C34.0041 46.5547 35.1285 45.0364 35.9327 43.1478C36.5482 41.7029 36.8775 40.2645 37.0538 39.1324L41.7038 40.4559V55.543H27.7687V49.6516ZM37.0702 14.0254H31.8052V6.50383C34.7906 7.80632 36.8561 10.6833 37.0702 14.0254ZM28.3482 3.45703V14.0254H23.7324V3.45703H28.3482ZM20.2753 6.50383V14.0254H15.0102C15.2244 10.6831 17.2899 7.80621 20.2753 6.50383ZM11.5299 17.4824H40.5505V20.945H11.5299V17.4824ZM37.0908 24.402V28.3413C37.0908 34.4346 32.1336 39.3918 26.0403 39.3918C19.9471 39.3918 14.9898 34.4346 14.9898 28.3413V24.402H37.0908ZM3.45703 42.4255L6.91959 41.44V55.543H3.45703V42.4255ZM48.6234 55.543H45.1608V41.4399L48.6234 42.4254V55.543Z" fill="#333333"/>
</svg>
