<svg width="59" height="51" viewBox="0 0 59 51" fill="none" xmlns="http://www.w3.org/2000/svg">
<path fill-rule="evenodd" clip-rule="evenodd" d="M21.2754 18.3471C21.2754 13.8121 24.9649 10.1226 29.5 10.1226C34.035 10.1226 37.7245 13.8121 37.7245 18.347C37.3127 29.2403 21.6888 29.2431 21.2754 18.3471ZM24.7324 18.3471C24.7324 20.9759 26.8712 23.1147 29.5 23.1147C32.1288 23.1147 34.2676 20.9759 34.2676 18.3473C34.0288 12.0326 24.972 12.0309 24.7324 18.3471Z" fill="#333333"/>
<path d="M42.7383 16.6187H46.1955V20.0756H42.7383V16.6187Z" fill="#333333"/>
<path d="M16.2619 16.6187H12.8047V20.0756H16.2619V16.6187Z" fill="#333333"/>
<path fill-rule="evenodd" clip-rule="evenodd" d="M0 50.5228V0H59V50.5228H0ZM46.1974 33.2372C46.9434 28.4387 50.7445 24.6376 55.543 23.8915V12.8026C50.7445 12.0566 46.9434 8.25534 46.1974 3.45696H12.8026C12.0566 8.25546 8.25546 12.0566 3.45696 12.8026V23.8915C8.25546 24.6374 12.0566 28.4387 12.8026 33.2372H46.1974ZM55.543 33.2372V27.4097C52.6546 28.0701 50.3759 30.3488 49.7155 33.2372H55.543ZM9.28448 33.2372C8.62409 30.3488 6.34526 28.0701 3.45696 27.4097V33.2372H9.28448ZM49.7155 3.45685C50.3759 6.34526 52.6547 8.62397 55.543 9.28437V3.45685H49.7155ZM3.45696 9.28437C6.34526 8.62397 8.62409 6.34526 9.28448 3.45696H3.45696V9.28437ZM3.45696 47.0659H55.543V43.6084H3.45696V47.0659ZM3.45696 40.1515H55.543V36.6941H3.45696V40.1515Z" fill="#333333"/>
</svg>
