<svg width="65" height="53" viewBox="0 0 65 53" fill="none" xmlns="http://www.w3.org/2000/svg">
<path fill-rule="evenodd" clip-rule="evenodd" d="M50.822 15.1429H38.3093V22.5181L22.0784 0H4.02874V19.2751H3.73195C1.59288 20.0599 0.0525627 22.0902 0 24.481H3.79773C3.86302 23.4961 4.68722 22.7143 5.69098 22.7143H5.92618C6.92994 22.7143 7.75414 23.4961 7.81943 24.481H11.6172C11.5641 22.0676 9.99464 20.0209 7.82363 19.2529V11.3571H16.2143L29.3337 34.0714H0.233845V49.2143H8.15C8.93325 51.4177 11.0423 53 13.516 53C15.9896 53 18.0987 51.4177 18.8819 49.2143H46.3519C47.1352 51.4177 49.2442 53 51.7179 53C54.1915 53 56.3006 51.4177 57.0838 49.2143H65V31.732L59.3077 20.3748C57.6901 17.1476 54.4387 15.1429 50.822 15.1429ZM50.822 18.9286C52.9919 18.9286 54.9429 20.1313 55.9135 22.0676L60.0325 30.2857H42.1041V18.9286H50.822ZM18.4074 7.57143H7.82363V3.78571H20.1331L38.3093 29.0026V34.0714H33.7135L18.4074 7.57143ZM13.516 49.2143C12.4697 49.2143 11.6185 48.365 11.6185 47.3214C11.6185 46.2779 12.4697 45.4286 13.516 45.4286C14.5622 45.4286 15.4134 46.2779 15.4134 47.3214C15.4134 48.365 14.5622 49.2143 13.516 49.2143ZM18.8819 45.4286C18.0987 43.2252 15.9896 41.6429 13.516 41.6429C11.0423 41.6429 8.93325 43.2252 8.15 45.4286H4.02874V37.8571H38.3093V45.4286H18.8819ZM51.7179 49.2143C50.6716 49.2143 49.8204 48.365 49.8204 47.3214C49.8204 46.2779 50.6716 45.4286 51.7179 45.4286C52.7641 45.4286 53.6153 46.2779 53.6153 47.3214C53.6153 48.365 52.7641 49.2143 51.7179 49.2143ZM57.0838 45.4286C56.3006 43.2252 54.1915 41.6429 51.7179 41.6429C49.2442 41.6429 47.1352 43.2252 46.3519 45.4286H42.1041V34.0714H61.2051V45.4286H57.0838Z" fill="#333333"/>
</svg>
