<svg width="24" height="24" viewBox="0 0 24 24" fill="none" xmlns="http://www.w3.org/2000/svg">
<path fill-rule="evenodd" clip-rule="evenodd" d="M20.9069 6.91913H15.5294V9.03677H13.6965L5.74235 1.0826L5.74159 1.08336C4.43883 -0.254379 2.11383 0.682328 2.11765 2.56994C2.11765 3.50068 2.64956 4.00092 3.11875 4.44216C3.26847 4.58296 3.41179 4.71775 3.52941 4.8586V8.43306H3.29412C2.11611 8.80997 1.55685 9.77166 1.54028 10.7389H2.94301C2.97551 10.1841 3.43713 9.74271 4 9.74271H4.24969C4.80601 9.75016 5.26007 10.1888 5.29228 10.7388H6.69501C6.67845 9.77156 6.11919 8.81049 4.94118 8.43357V6.26792L12.7059 14.019V15.3897H0V21.7427H2.91284C3.66592 24.5492 7.62923 24.5474 8.38123 21.7427H15.6187C16.3718 24.5492 20.3351 24.5474 21.0871 21.7427H24V13.1054L20.9069 6.91913ZM22.152 12.5662H19.7647V11.1544H21.4461L22.152 12.5662ZM4.23529 1.86406C4.62452 1.86406 4.94118 2.18072 4.94118 2.56994C4.90239 3.50642 3.56804 3.50613 3.52941 2.56994C3.52941 2.18067 3.84607 1.86406 4.23529 1.86406ZM5.14867 4.4802C5.58392 4.27126 5.93709 3.91794 6.14589 3.4826L12.7059 10.0426V12.0242L5.14867 4.4802ZM14.1176 10.4485H15.5294V15.3897H14.1176V10.4485ZM5.64706 22.4485C4.86861 22.4485 4.23529 21.8152 4.23529 21.0368C4.31284 19.1639 6.98155 19.1644 7.05882 21.0368C7.05882 21.8152 6.42551 22.4485 5.64706 22.4485ZM18.3529 22.4485C17.5745 22.4485 16.9412 21.8152 16.9412 21.0368C17.0187 19.1639 19.6874 19.1644 19.7647 21.0368C19.7647 21.8152 19.1314 22.4485 18.3529 22.4485ZM22.5882 20.3309H21.0872C20.3341 17.5243 16.3707 17.5262 15.6188 20.3309H8.38127C7.62819 17.5243 3.66489 17.5262 2.91289 20.3309H1.41176V16.8015H22.5882V20.3309ZM16.9412 15.3897V8.33089H20.0343L20.7402 9.74266H18.3529V13.978H22.5882V15.3897H16.9412Z" fill="white"/>
</svg>
