<svg width="24" height="16" viewBox="0 0 24 16" fill="none" xmlns="http://www.w3.org/2000/svg">
<path fill-rule="evenodd" clip-rule="evenodd" d="M12.4861 3.60962H9.51642V8.21289L8.46631 8.2168L8.47162 9.62305L9.51642 9.61914V10.4819L8.46631 10.4858L8.47162 11.8921L9.51642 11.8882V13.1562H10.9227V11.8833C11.2384 11.8823 11.7812 11.8813 12.2565 11.8806L13.1893 11.8792V10.4729C13.1893 10.4729 11.5734 10.4749 10.9227 10.4771V9.61426L10.9596 9.61415C11.5978 9.61223 12.2241 9.61035 12.4861 9.61035C13.2867 9.61035 14.0458 9.30054 14.6235 8.73828C15.209 8.16797 15.5314 7.41235 15.5314 6.61011C15.5314 5.80786 15.209 5.052 14.6235 4.48193C14.0458 3.91943 13.2867 3.60962 12.4861 3.60962ZM12.4861 8.2041C12.2183 8.2041 11.5734 8.20581 10.9227 8.20801V5.01587H12.4861C13.3746 5.01587 14.1252 5.74585 14.1252 6.60986C14.1252 7.47412 13.3746 8.2041 12.4861 8.2041Z" fill="white"/>
<path fill-rule="evenodd" clip-rule="evenodd" d="M0 16H24V0H0V16ZM19.5354 1.5C19.7547 3.03285 20.9672 4.2453 22.5 4.46456V1.5H19.5354ZM22.5 5.97531C20.1378 5.74078 18.2592 3.86221 18.0247 1.5H5.97531C5.74078 3.86221 3.86221 5.74078 1.5 5.97531V10.0247C3.86221 10.2592 5.74078 12.1378 5.97531 14.5H18.0247C18.2592 12.1378 20.1378 10.2592 22.5 10.0247V5.97531ZM1.5 14.5V11.5354C3.03285 11.7547 4.2453 12.9672 4.46456 14.5H1.5ZM19.5354 14.5C19.7547 12.9672 20.9672 11.7547 22.5 11.5354V14.5H19.5354ZM4.46456 1.5H1.5V4.46456C3.03285 4.2453 4.2453 3.03285 4.46456 1.5Z" fill="white"/>
</svg>
