<svg width="24" height="24" viewBox="0 0 24 24" fill="none" xmlns="http://www.w3.org/2000/svg">
<path d="M17.293 13.3723C16.4671 14.1991 15.1772 15.4904 14.0972 16.578C12.8133 15.7376 11.6528 14.8102 10.7196 13.877C9.56714 12.7246 8.12601 11.0837 7.34721 9.92138C8.33599 8.93964 9.62908 7.64823 10.5779 6.70024L4.87768 1L2.03352 3.79297L2.02933 3.79716C1.2334 4.59309 0.896362 5.67956 1.02762 7.02636C1.4474 11.333 6.71375 17.571 11.3691 20.6953C14.0644 22.5042 17.9385 24.1786 20.2299 21.887C21.8936 20.2235 22.5296 19.5457 22.5559 19.5177L22.9826 19.0621L17.293 13.3723ZM19.3179 20.9749C17.5832 22.7094 14.143 21.0033 12.0879 19.6241C7.76783 16.7247 2.69031 10.7866 2.31148 6.90115C2.2195 5.95819 2.43081 5.22134 2.93939 4.71142L4.86946 2.8161L8.75292 6.69973C6.78341 8.66622 6.19007 9.25234 5.71826 9.71946L5.96852 10.1508C6.72852 11.46 8.49125 13.473 9.8075 14.7893C11.2513 16.2331 12.7334 17.2524 14.2831 18.2224L14.6462 17.856C15.4428 17.0522 16.6004 15.8915 17.2935 15.1973L21.1823 19.0861C20.8221 19.4579 20.2204 20.0722 19.3179 20.9749Z" fill="white" stroke="white" stroke-width="0.2"/>
</svg>
