<svg width="243" height="136" viewBox="0 0 243 136" fill="none" xmlns="http://www.w3.org/2000/svg">
<path opacity="0.2" d="M120.986 133.397C114.633 120.894 103.05 91.7961 103.05 65.941C103.05 32.5428 109.854 21.41 111.091 20.7915C112.048 20.3127 118.103 20.5675 121.296 20.7713C124.488 20.5675 130.543 20.3127 131.501 20.7915C132.738 21.41 139.541 32.5428 139.541 65.941C139.541 91.7961 127.958 120.894 121.605 133.397L121.296 134L120.986 133.397Z" stroke="white"/>
<path opacity="0.2" d="M111.091 20.1731C108.617 19.5546 103.669 16.5859 103.669 9.65881C103.669 2.96316 114.841 1.12149 120.987 1.00593V1C121.088 1 121.191 1.0005 121.296 1.00151C121.401 1.0005 121.504 1 121.605 1V1.00593C127.751 1.12149 138.923 2.96316 138.923 9.65881C138.923 16.5859 133.975 19.5546 131.501 20.1731H111.091Z" stroke="white"/>
<path opacity="0.2" d="M106.143 31.3059C88.8251 19.9258 55.4268 20.1732 55.4268 20.1732C55.4268 20.1732 36.2537 19.5545 26.358 24.2755C15.279 32.1959 1 48.3029 1 72.1261C1 101.319 8.83416 120.574 12.7512 126.553C13.1636 109.029 17.8228 71.2602 33.1613 60.3748C52.3344 46.7681 80.1663 53.5715 103.05 65.3227" stroke="white"/>
<path opacity="0.2" d="M136.449 31.3059C153.766 19.9258 187.164 20.1732 187.164 20.1732C187.164 20.1732 206.338 19.5545 216.233 24.2755C227.312 32.1959 241.591 48.3029 241.591 72.1261C241.591 101.319 233.757 120.574 229.84 126.553C229.428 109.029 224.768 71.2602 209.43 60.3748C190.257 46.7681 162.425 53.5715 139.541 65.3227" stroke="white"/>
</svg>
