<svg width="189" height="161" viewBox="0 0 189 161" fill="none" xmlns="http://www.w3.org/2000/svg">
<g opacity="0.2">
<path d="M6.84375 0.5H182.156C185.662 0.5 188 2.87033 188 6.42593V78.1297C183.325 71.6111 177.481 66.2778 170.469 62.1296V41.9815C170.469 38.4259 168.131 36.0556 164.625 36.0556C158.197 36.0556 152.938 30.7223 152.938 24.2037C152.938 20.6481 150.6 18.2778 147.094 18.2778H41.9062C38.4001 18.2778 36.0625 20.6481 36.0625 24.2037C36.0625 30.7223 30.803 36.0556 24.375 36.0556C20.8689 36.0556 18.5312 38.4259 18.5312 41.9815V89.3889C18.5312 92.9445 20.8689 95.3148 24.375 95.3148C30.803 95.3148 36.0625 100.648 36.0625 107.167C36.0625 110.722 38.4001 113.093 41.9062 113.093H82.8125C82.8125 119.019 83.9813 125.537 85.7344 130.87H6.84375C3.33764 130.87 1 128.5 1 124.944V6.42593C1 2.87033 3.33764 0.5 6.84375 0.5Z" stroke="white"/>
<path d="M94.5 36.0556C81.6437 36.0556 71.125 49.0927 71.125 65.6852C71.125 78.1297 77.553 88.7963 86.3186 93.5371C91.5781 78.1297 102.681 65.6852 117.291 59.1666C114.953 46.1297 105.603 36.0556 94.5 36.0556Z" stroke="white"/>
<path fill-rule="evenodd" clip-rule="evenodd" d="M141.25 65.6852C115.537 65.6852 94.5 87.0186 94.5 113.093C94.5 139.167 115.537 160.5 141.25 160.5C166.963 160.5 188 139.167 188 113.093C188 87.0186 166.963 65.6852 141.25 65.6852ZM164.625 113.093C164.625 116.648 162.287 119.019 158.781 119.019H147.094V130.87C147.094 134.426 144.756 136.796 141.25 136.796C137.744 136.796 135.406 134.426 135.406 130.87V119.019H123.719C120.213 119.019 117.875 116.648 117.875 113.093C117.875 109.537 120.213 107.167 123.719 107.167H135.406V95.3148C135.406 91.7592 137.744 89.3889 141.25 89.3889C144.756 89.3889 147.094 91.7592 147.094 95.3148V107.167H158.781C162.287 107.167 164.625 109.537 164.625 113.093Z" stroke="white"/>
</g>
</svg>
