<svg width="248" height="150" viewBox="0 0 248 150" fill="none" xmlns="http://www.w3.org/2000/svg">
<g opacity="0.2">
<path d="M135.182 1H179.909V17.7547H168.727L157.545 28.9245V79.1887H26.1591L1 54.0567V12.1699H124L135.182 1Z" stroke="white"/>
<path fill-rule="evenodd" clip-rule="evenodd" d="M168.727 28.9245H196.682C206.746 28.9245 215.411 35.6258 218.207 45.1211L223.798 64.3883C224.357 66.6226 225.754 68.857 227.711 70.2532L242.527 81.423C245.323 83.6573 247 86.7279 247 90.3585V118.283C247 124.426 241.968 129.453 235.818 129.453C235.818 114.094 223.239 101.528 207.864 101.528C192.489 101.528 179.909 114.094 179.909 129.453H168.727V28.9245ZM179.909 68.0189H213.175C213.175 67.8786 213.105 67.8086 213.035 67.7388C212.965 67.6692 212.895 67.5997 212.895 67.4608L207.305 48.1918C206.186 43.445 201.714 40.0944 196.682 40.0944H179.909V68.0189Z" stroke="white"/>
<path d="M157.545 90.3585H1V129.453H17.7727C17.7727 114.094 30.3524 101.528 45.7273 101.528C61.1024 101.528 73.6818 114.094 73.6818 129.453H157.545V90.3585Z" stroke="white"/>
<path d="M45.7273 109.906C56.5347 109.906 65.2955 118.658 65.2955 129.453C65.2955 140.248 56.5347 149 45.7273 149C34.92 149 26.1591 140.248 26.1591 129.453C26.1591 118.658 34.92 109.906 45.7273 109.906Z" stroke="white"/>
<path d="M227.432 129.453C227.432 118.658 218.671 109.906 207.864 109.906C197.056 109.906 188.296 118.658 188.296 129.453C188.296 140.248 197.056 149 207.864 149C218.671 149 227.432 140.248 227.432 129.453Z" stroke="white"/>
</g>
</svg>
