<svg width="20" height="20" viewBox="0 0 20 20" fill="none" xmlns="http://www.w3.org/2000/svg">
<path fill-rule="evenodd" clip-rule="evenodd" d="M4.39689 9.2476C6.30065 11.5744 8.43176 13.7055 10.7586 15.6093L11.3584 16.1C12.4352 16.9811 14.0046 16.9028 14.9885 15.919L16.5382 14.3692L13.5919 11.4229L11.3822 13.6326L6.36472 8.61511L8.5818 6.41277L5.63699 3.46796L4.08722 5.01773C3.10335 6.00161 3.02507 7.57094 3.90617 8.64783L4.39689 9.2476ZM9.96703 16.5767C7.57588 14.6203 5.38584 12.4303 3.42944 10.0392L2.93872 9.43938C1.65097 7.86546 1.76537 5.57182 3.20334 4.13385L5.63699 1.7002L10.3525 6.41572L8.13544 8.61806L11.3822 11.8649L13.5919 9.65515L18.306 14.3692L15.8723 16.8028C14.4344 18.2408 12.1407 18.3552 10.5668 17.0675L9.96703 16.5767Z" fill="#00939A"/>
</svg>
