<svg width="21" height="21" viewBox="0 0 21 21" fill="none" xmlns="http://www.w3.org/2000/svg">
<path fill-rule="evenodd" clip-rule="evenodd" d="M3.03847 9.74635C5.4969 12.7511 8.24891 15.5031 11.2537 17.9615L12.0282 18.5952C13.4188 19.733 15.4454 19.6319 16.7159 18.3614L18.7172 16.3601L14.9125 12.5554L12.059 15.4089L5.57964 8.92958L8.44266 6.08558L4.63988 2.28281L2.63859 4.28411C1.36806 5.55463 1.26698 7.58119 2.40478 8.97184L3.03847 9.74635ZM10.2315 19.2108C7.14366 16.6844 4.31556 13.8563 1.78916 10.7685L1.15547 9.994C-0.50747 7.96152 -0.359744 4.99963 1.49718 3.1427L4.63988 0L10.7293 6.08939L7.86626 8.93339L12.059 13.1261L14.9125 10.2726L21 16.3601L17.8573 19.5028C16.0004 21.3597 13.0385 21.5075 11.006 19.8445L10.2315 19.2108Z" fill="#333333"/>
</svg>
