<svg width="49" height="49" viewBox="0 0 49 49" fill="none" xmlns="http://www.w3.org/2000/svg">
<path fill-rule="evenodd" clip-rule="evenodd" d="M2.2191 14.0358C6.04704 5.76965 14.4796 0 24.1882 0C37.5582 0 48.4318 10.8736 48.4318 24.2436C48.4318 37.6137 37.5582 48.4318 24.1882 48.4318C14.4796 48.4318 6.04704 42.7176 2.2191 34.4515C1.94171 33.7857 1.99719 33.0645 2.33005 32.4543C2.71839 31.8995 3.38412 31.5112 4.04985 31.5112H28.0161C29.2921 31.5112 30.3461 30.5126 30.3461 29.1811C30.3461 27.9051 29.2921 26.8511 28.0161 26.8511H2.05266C0.943116 26.8511 0 25.9634 0 24.8539C0 24.632 0 24.4655 0 24.2436C0 24.0217 0 23.7998 0 23.5779C0 22.4684 0.943116 21.5807 2.05266 21.5807H28.0161C29.2921 21.5807 30.3461 20.5821 30.3461 19.2507C30.3461 17.9747 29.2921 16.9206 28.0161 16.9206H4.04985C3.38412 16.9206 2.71839 16.5877 2.33005 15.9775C1.99719 15.4227 1.94171 14.646 2.2191 14.0358ZM7.60041 12.8708H28.0161C31.5667 12.8708 34.396 15.7001 34.396 19.2507C34.396 21.2479 33.5084 23.0786 32.0659 24.2436C33.5084 25.4087 34.396 27.1839 34.396 29.1811C34.396 32.7317 31.5667 35.6165 28.0161 35.6165H7.60041C11.2064 40.8869 17.309 44.3819 24.1882 44.3819C35.3391 44.3819 44.3265 35.3391 44.3265 24.2436C44.3265 13.0927 35.3391 4.10533 24.1882 4.10533C17.309 4.10533 11.2064 7.54493 7.60041 12.8708Z" fill="#00939A"/>
</svg>
